<svg width="420" height="320" viewBox="0 0 420 320" fill="none" xmlns="http://www.w3.org/2000/svg">
  <rect x="12" y="24" width="396" height="284" rx="28" fill="#f2f6fb" />
  <rect x="36" y="52" width="348" height="220" rx="20" fill="#ffffff" stroke="#0564a9" stroke-width="4" />
  <rect x="36" y="52" width="348" height="56" rx="20" fill="#0564a9" />
  <circle cx="72" cy="80" r="8" fill="#45a8ff" />
  <circle cx="102" cy="80" r="8" fill="#8ad0ff" />
  <circle cx="132" cy="80" r="8" fill="#c5e8ff" />
  <path d="M68 140H236" stroke="#0564a9" stroke-width="6" stroke-linecap="round" stroke-dasharray="6 16" />
  <path d="M68 176H320" stroke="#0f2c4c" stroke-width="6" stroke-linecap="round" stroke-dasharray="24 18" opacity="0.5" />
  <path d="M68 212H284" stroke="#9cb6d3" stroke-width="6" stroke-linecap="round" stroke-dasharray="18 14" opacity="0.4" />
  <path d="M244 248H332" stroke="#da251f" stroke-width="10" stroke-linecap="round" />
  <g filter="url(#dropShadow)">
    <path d="M156 90h152c11 0 20 9 20 20v38c0 11-9 20-20 20H216l-32 24v-24h-28c-11 0-20-9-20-20v-38c0-11 9-20 20-20z" fill="#ffffff" />
    <path d="M156 90h152c11 0 20 9 20 20v38c0 11-9 20-20 20H216l-32 24v-24h-28c-11 0-20-9-20-20v-38c0-11 9-20 20-20z" stroke="#0564a9" stroke-width="4" />
    <text x="176" y="131" font-family="'Sora', 'Inter', sans-serif" font-size="28" font-weight="700" fill="#0564a9">INTERLIS</text>
    <rect x="176" y="144" width="104" height="8" rx="4" fill="#cde3f4" />
  </g>
  <path d="M324 198c18 6 32 20 32 40 0 28-26 50-58 50-24 0-44-12-53-30" stroke="#0564a9" stroke-width="4" stroke-linecap="round" stroke-dasharray="14 12" />
  <path d="M116 262c-18-6-32-20-32-40 0-28 26-50 58-50 24 0 44 12 53 30" stroke="#da251f" stroke-width="4" stroke-linecap="round" stroke-dasharray="10 10" opacity="0.6" />
  <defs>
    <filter id="dropShadow" x="120" y="74" width="240" height="160" filterUnits="userSpaceOnUse" color-interpolation-filters="sRGB">
      <feFlood flood-opacity="0" result="BackgroundImageFix" />
      <feColorMatrix in="SourceAlpha" type="matrix" values="0 0 0 0 0 0 0 0 0 0 0 0 0 0 0 0 0 0 127 0" result="hardAlpha" />
      <feOffset dx="0" dy="8" />
      <feGaussianBlur stdDeviation="12" />
      <feColorMatrix type="matrix" values="0 0 0 0 0.0431373 0 0 0 0 0.392157 0 0 0 0 0.662745 0 0 0 0.16 0" />
      <feBlend mode="normal" in2="BackgroundImageFix" result="effect1_dropShadow" />
      <feBlend mode="normal" in="SourceGraphic" in2="effect1_dropShadow" result="shape" />
    </filter>
  </defs>
</svg>
